<svg xmlns="http://www.w3.org/2000/svg" width="48" height="48" viewBox="0 0 48 48">
  <defs>
    <linearGradient id="cloudGradient" x1="0%" y1="0%" x2="100%" y2="100%">
      <stop offset="0%" style="stop-color:#8B5CF6"/>
      <stop offset="25%" style="stop-color:#2D8CFF"/>
      <stop offset="50%" style="stop-color:#00D4FF"/>
      <stop offset="75%" style="stop-color:#10B981"/>
      <stop offset="100%" style="stop-color:#F59E0B"/>
    </linearGradient>
  </defs>
  <path d="M38 28c0-5.5-4.5-10-10-10-1.2 0-2.3.2-3.4.6C22.8 14.5 18.7 12 14 12 7.4 12 2 17.4 2 24c0 .7.1 1.4.2 2.1C2.1 26.7 2 27.3 2 28c0 5.5 4.5 10 10 10h26c5.5 0 10-4.5 10-10s-4.5-10-10-10z" fill="url(#cloudGradient)"/>
  <path d="M24 20l-4 8h3v6l4-8h-3v-6z" fill="#fff"/>
</svg>
